<svg xmlns="http://www.w3.org/2000/svg" viewBox="0 0 512 512" fill="none">
  <defs>
    <linearGradient id="bg" x1="0%" y1="0%" x2="100%" y2="100%">
      <stop offset="0%" style="stop-color:#667eea;stop-opacity:1" />
      <stop offset="100%" style="stop-color:#764ba2;stop-opacity:1" />
    </linearGradient>
    <linearGradient id="hat" x1="0%" y1="0%" x2="100%" y2="100%">
      <stop offset="0%" style="stop-color:#4c1d95;stop-opacity:1" />
      <stop offset="100%" style="stop-color:#1e1b4b;stop-opacity:1" />
    </linearGradient>
  </defs>
  
  <!-- Background circle -->
  <circle cx="256" cy="256" r="240" fill="url(#bg)" stroke="#fff" stroke-width="8"/>
  
  <!-- Wizard hat -->
  <path d="M256 80 L320 240 L192 240 Z" fill="url(#hat)" stroke="#fff" stroke-width="4"/>
  
  <!-- Hat brim -->
  <ellipse cx="256" cy="240" rx="70" ry="12" fill="url(#hat)" stroke="#fff" stroke-width="2"/>
  
  <!-- Stars on hat -->
  <polygon points="220,140 225,150 235,150 227,158 230,168 220,162 210,168 213,158 205,150 215,150" fill="#fbbf24"/>
  <polygon points="280,120 283,127 290,127 285,132 287,139 280,135 273,139 275,132 270,127 277,127" fill="#fbbf24"/>
  <polygon points="250,180 253,187 260,187 255,192 257,199 250,195 243,199 245,192 240,187 247,187" fill="#fbbf24"/>
  
  <!-- Wizard face -->
  <circle cx="256" cy="280" r="40" fill="#fbbf24" stroke="#fff" stroke-width="2"/>
  
  <!-- Eyes -->
  <circle cx="245" cy="275" r="4" fill="#1f2937"/>
  <circle cx="267" cy="275" r="4" fill="#1f2937"/>
  
  <!-- Beard -->
  <path d="M230 300 Q256 340 282 300 Q275 320 256 325 Q237 320 230 300" fill="#e5e7eb" stroke="#fff" stroke-width="2"/>
  
  <!-- Magic wand -->
  <line x1="320" y1="350" x2="380" y2="410" stroke="#8b5cf6" stroke-width="8" stroke-linecap="round"/>
  
  <!-- Wand star -->
  <polygon points="380,410 385,420 395,420 387,428 390,438 380,432 370,438 373,428 365,420 375,420" fill="#fbbf24"/>
  
  <!-- Magic sparkles -->
  <circle cx="340" cy="320" r="3" fill="#fbbf24"/>
  <circle cx="360" cy="340" r="2" fill="#f59e0b"/>
  <circle cx="350" cy="380" r="2" fill="#fbbf24"/>
  <circle cx="400" cy="370" r="3" fill="#f59e0b"/>
  
  <!-- Game controller icon -->
  <rect x="180" y="380" width="40" height="25" rx="12" fill="#6366f1" stroke="#fff" stroke-width="2"/>
  <circle cx="190" cy="390" r="3" fill="#fff"/>
  <circle cx="210" cy="390" r="3" fill="#fff"/>
  <rect x="200" y="385" width="2" height="10" fill="#fff"/>
  <rect x="195" y="390" width="10" height="2" fill="#fff"/>
</svg>
